<?xml version="1.0" encoding="utf-8"?>
<!-- Generator: Adobe Illustrator 19.0.0, SVG Export Plug-In . SVG Version: 6.00 Build 0)  -->
<svg version="1.1" id="Livello_1" xmlns="http://www.w3.org/2000/svg" xmlns:xlink="http://www.w3.org/1999/xlink" x="0px" y="0px"
	 viewBox="-386 255 185.7 51" style="enable-background:new -386 255 185.7 51;" xml:space="preserve">
<style type="text/css">
	.st0{fill:#FFFFFF;}
</style>
<g>
	<path class="st0" d="M-307,275.9l0.2-0.2l-2.1-1.7l-0.2,0.2c-0.9,1.1-2.2,1.7-3.6,1.7c-2.6,0-4.3-1.9-4.3-4.7
		c0-2.8,1.7-4.7,4.3-4.7c1.3-0.1,2.6,0.5,3.4,1.6l0.2,0.2l2.1-1.8l-0.2-0.2c-1.3-1.7-3.4-2.6-5.5-2.5c-4,0-7.3,3.3-7.3,7.3
		s3.3,7.3,7.3,7.3C-310.5,278.5-308.4,277.6-307,275.9z"/>
	<path class="st0" d="M-291.4,275.8l-1.8-1.8l-0.2,0.2c-1,1.1-2.5,1.7-4,1.7c-2.3,0.2-4.3-1.4-4.6-3.7h11.3v-0.3
		c0.2-2.2-0.6-4.4-2.1-6c-1.3-1.3-3.1-2-5-2s-3.8,0.8-5.1,2.1c-1.4,1.4-2.1,3.2-2.1,5.2c0,4.2,3.2,7.2,7.5,7.2
		c2.2,0.1,4.3-0.8,5.8-2.4L-291.4,275.8z M-297.8,266.4c2.1-0.2,3.9,1.4,4.1,3.5h-8.4C-301.7,267.8-299.9,266.3-297.8,266.4z"/>
	<path class="st0" d="M-284.6,270.8c0-2.7,1.1-4.2,3.2-4.2c0.6,0,1.2,0.1,1.7,0.5l0.3,0.2l1.1-2.5l-0.2-0.1
		c-0.7-0.5-1.6-0.7-2.5-0.7l0,0c-1.4,0-2.8,0.7-3.6,1.9v-1.7h-2.8v14h2.9v-7.4H-284.6z"/>
	<path class="st0" d="M-270.4,263.9L-270.4,263.9L-270.4,263.9z"/>
	<path class="st0" d="M-270.1,278.4c2.2,0.1,4.4-0.8,5.8-2.4l0.2-0.2l-1.8-1.7l-0.2,0.2c-1,1.1-2.5,1.7-4,1.7
		c-2.3,0.2-4.3-1.4-4.6-3.7h11.3V272c0.2-2.2-0.6-4.4-2.1-6c-1.3-1.3-3.1-2.1-5-2c-1.9,0-3.8,0.8-5.1,2.1c-1.4,1.4-2.1,3.2-2.1,5.2
		C-277.6,275.4-274.4,278.4-270.1,278.4z M-270.4,266.4c2.1-0.2,3.9,1.4,4.1,3.5h-8.4C-274.4,267.8-272.5,266.3-270.4,266.4z"/>
	<path class="st0" d="M-254.8,269.7L-254.8,269.7c-2.4-0.6-3-1-3-2s0.8-1.4,2.1-1.4c1.1,0,2.1,0.5,2.7,1.4l0.2,0.2l2.1-1.6l-0.2-0.2
		c-1.1-1.5-2.9-2.4-4.7-2.3c-2.8,0-4.7,1.6-4.7,4c0,2.8,2.2,3.7,4.3,4.3h0.1c2.4,0.7,3.2,1,3.2,2.1c0,1.1-0.9,1.7-2.5,1.7
		c-1.5,0.1-2.9-0.8-3.6-2.1l-0.2-0.2l-2.2,1.3l0.1,0.3c1.2,2.1,3.5,3.4,6,3.3c3.2,0,5.1-1.6,5.1-4.3
		C-250.1,271.4-252.3,270.4-254.8,269.7z"/>
	<path class="st0" d="M-233,263.9L-233,263.9c-4,0.1-7.2,3.4-7.2,7.4s3.3,7.2,7.3,7.2s7.2-3.3,7.2-7.2c0-1.9-0.8-3.8-2.2-5.2
		C-229.2,264.6-231.1,263.9-233,263.9z M-230.7,275.3c-1.4,0.9-3.2,0.9-4.7,0c-1.4-0.9-2.3-2.5-2.2-4.2c-0.1-1.7,0.7-3.3,2.2-4.2
		c1.4-0.9,3.2-0.9,4.7,0c1.4,0.9,2.3,2.5,2.2,4.2C-228.5,272.8-229.3,274.4-230.7,275.3z"/>
	<rect x="-246.8" y="264.7" class="st0" width="2.9" height="13.5"/>
	<path class="st0" d="M-246.8,259.1v3.6h2.9C-244.6,261.3-245.6,260.1-246.8,259.1z"/>
	<path class="st0" d="M-304.5,286.6L-304.5,286.6c-1.8,0-3.5,0.8-4.6,2.2v-1.9h-2.8v14h2.9v-7.7c-0.1-1.1,0.3-2.1,1-2.9
		c0.7-0.8,1.8-1.1,2.8-1.1c2.1,0,3.1,1.1,3.1,3.4v8.4h2.9v-8.5C-299.2,288.9-301.2,286.6-304.5,286.6z"/>
	<path class="st0" d="M-289.3,294.8c-0.2,0.4-0.3,0.8-0.5,1.3c-0.1-0.4-0.3-0.8-0.5-1.2l-3.6-7.9h-3.1l6.8,14.3h0.8l6.7-14.3h-3
		L-289.3,294.8z"/>
	<path class="st0" d="M-274.4,286.6c-2.6,0.1-5,1.5-6.2,3.8c-1.3,2.3-1.2,5,0.2,7.3c1.3,2.2,3.8,3.6,6.4,3.5
		c2.2,0.1,4.4-0.8,5.8-2.4l0.2-0.2l-1.8-1.8l-0.2,0.2c-1,1.1-2.5,1.7-4,1.7c-2.3,0.2-4.3-1.4-4.6-3.7h11.3v-0.3
		c0.2-2.2-0.6-4.4-2.1-6.1C-270.8,287.3-272.5,286.6-274.4,286.6z M-278.7,292.7c0.3-2.1,2.2-3.6,4.3-3.5c2.1-0.1,3.9,1.4,4.1,3.5
		H-278.7z"/>
	<path class="st0" d="M-274.4,286.6L-274.4,286.6L-274.4,286.6L-274.4,286.6z"/>
	<path class="st0" d="M-257.9,292.5c-2.4-0.7-3-1-3-2s0.8-1.4,2.1-1.4c1.1,0,2.1,0.5,2.7,1.4l0.2,0.3l2.1-1.6l-0.2-0.2
		c-1.1-1.5-2.9-2.4-4.7-2.3c-2.8,0-4.7,1.6-4.7,4c0,2.8,2.2,3.7,4.3,4.3h0.1c2.4,0.7,3.2,1,3.2,2.2c0,1.1-1,1.7-2.6,1.7
		c-1.5,0.1-2.9-0.8-3.6-2.1l-0.2-0.3l-2.2,1.3l0.1,0.2c1.2,2.2,3.5,3.4,6,3.3c3.2,0,5.1-1.6,5.1-4.3
		C-253.2,294.2-255.5,293.2-257.9,292.5z"/>
	<path class="st0" d="M-233,286.6L-233,286.6c-4,0.1-7.2,3.4-7.2,7.4s3.3,7.2,7.3,7.2s7.2-3.3,7.2-7.3c0-1.9-0.8-3.8-2.2-5.2
		C-229.2,287.4-231.1,286.6-233,286.6z M-230.7,298.1c-1.4,0.9-3.2,0.9-4.7,0c-1.4-0.9-2.3-2.5-2.2-4.2c-0.1-1.7,0.7-3.3,2.2-4.2
		c1.4-0.9,3.2-0.9,4.7,0c1.4,0.9,2.3,2.5,2.2,4.2C-228.5,295.6-229.3,297.2-230.7,298.1z"/>
	<path class="st0" d="M-215.7,286.7L-215.7,286.7L-215.7,286.7L-215.7,286.7z"/>
	<path class="st0" d="M-215.7,286.7c-1.4,0-2.8,0.7-3.6,1.9v-1.7h-2.9v14h2.9v-7.4c0-2.7,1.2-4.2,3.2-4.2c0.6,0,1.2,0.1,1.7,0.5
		l0.3,0.2l1.1-2.5l-0.2-0.1C-214,286.9-214.8,286.6-215.7,286.7z"/>
	<path class="st0" d="M-205,292.5L-205,292.5c-2.3-0.7-2.9-1-2.9-2s0.8-1.4,2.1-1.4c1.1,0,2.1,0.5,2.7,1.4l0.2,0.3l2.1-1.6l-0.2-0.2
		c-1.1-1.5-2.9-2.4-4.7-2.3c-2.8,0-4.7,1.6-4.7,4c0,2.8,2.2,3.7,4.3,4.3h0.1c2.4,0.7,3.2,1,3.2,2.2c0,1.1-1,1.7-2.5,1.7
		c-1.5,0.1-3-0.7-3.7-2.1l-0.2-0.3l-2.3,1.3l0.1,0.2c1.2,2.2,3.5,3.4,6,3.3c3.2,0,5.1-1.6,5.1-4.3
		C-200.3,294.2-202.6,293.2-205,292.5z"/>
	<path class="st0" d="M-244.2,298c-0.4,0.5-1,0.8-1.7,0.7c-0.6,0-1.3-0.2-1.3-2v-7h3.6v-2.4h-3.6v-4.5h-2.7v13.8
		c0,3.9,2.4,4.5,3.8,4.5c1.2,0.1,2.5-0.4,3.3-1.3l0.2-0.2l-1.4-1.9L-244.2,298z"/>
	<rect x="-319.6" y="287.4" class="st0" width="2.9" height="13.5"/>
	<path class="st0" d="M-319.6,281.9v3.6h2.9C-317.4,284.1-318.4,282.8-319.6,281.9z"/>
	<path class="st0" d="M-345.1,260.1v10h8C-338.9,266.2-341.7,262.7-345.1,260.1z"/>
	<path class="st0" d="M-335.5,275.2h-9.6v25.7c6.4-4.8,10.2-12.4,10.2-20.4C-334.9,278.7-335.1,277-335.5,275.2L-335.5,275.2z"/>
	<path class="st0" d="M-380.6,264.8c-7.2,9.2-7.2,22.1,0,31.3c7.2,9.2,19.7,12.4,30.3,7.7v-12c-6.1,5.5-15.5,5.2-21.2-0.8
		c-5.7-5.9-5.7-15.3,0-21.2c5.7-5.9,15.1-6.3,21.2-0.8v-12C-361,252.5-373.5,255.6-380.6,264.8z"/>
</g>
</svg>
