<?xml version="1.0" encoding="utf-8"?>
<!-- Generator: Adobe Illustrator 19.0.0, SVG Export Plug-In . SVG Version: 6.00 Build 0)  -->
<svg version="1.1" id="Livello_1" xmlns="http://www.w3.org/2000/svg" xmlns:xlink="http://www.w3.org/1999/xlink" x="0px" y="0px"
	 viewBox="0 0 185.7 51" style="enable-background:new 0 0 185.7 51;" xml:space="preserve">
<style type="text/css">
	.st0{fill-rule:evenodd;clip-rule:evenodd;fill:#1D3756;}
</style>
<g>
	<path class="st0" d="M79,20.9l0.2-0.2L77.1,19l-0.2,0.2c-0.9,1.1-2.2,1.7-3.6,1.7c-2.6,0-4.3-1.9-4.3-4.7s1.7-4.7,4.3-4.7
		c1.3-0.1,2.6,0.5,3.4,1.6l0.2,0.2l2.1-1.8l-0.2-0.2c-1.3-1.7-3.4-2.6-5.5-2.5c-4,0-7.3,3.3-7.3,7.3c0,4,3.3,7.3,7.3,7.3
		C75.5,23.5,77.6,22.6,79,20.9z"/>
	<path class="st0" d="M94.6,20.8L92.8,19l-0.2,0.2c-1,1.1-2.5,1.7-4,1.7c-2.3,0.2-4.3-1.4-4.6-3.7h11.3v-0.3c0.2-2.2-0.6-4.4-2.1-6
		c-1.3-1.3-3.1-2-5-2c-1.9,0-3.8,0.8-5.1,2.1c-1.4,1.4-2.1,3.2-2.1,5.2c0,4.2,3.2,7.2,7.5,7.2c2.2,0.1,4.3-0.8,5.8-2.4L94.6,20.8z
		 M88.2,11.4c2.1-0.2,3.9,1.4,4.1,3.5h-8.4C84.3,12.8,86.1,11.3,88.2,11.4z"/>
	<path class="st0" d="M101.4,15.8c0-2.7,1.1-4.2,3.2-4.2c0.6,0,1.2,0.1,1.7,0.5l0.3,0.2l1.1-2.5l-0.2-0.1c-0.7-0.5-1.6-0.7-2.5-0.7
		h0c-1.4,0-2.8,0.7-3.6,1.9V9.2h-2.8v14h2.9V15.8z"/>
	<polygon class="st0" points="115.6,8.9 115.6,8.9 115.6,8.9 	"/>
	<path class="st0" d="M115.9,23.4c2.2,0.1,4.4-0.8,5.8-2.4l0.2-0.2l-1.8-1.7l-0.2,0.2c-1,1.1-2.5,1.7-4,1.7
		c-2.3,0.2-4.3-1.4-4.6-3.7h11.3v-0.3c0.2-2.2-0.6-4.4-2.1-6c-1.3-1.3-3.1-2.1-5-2c-1.9,0-3.8,0.8-5.1,2.1c-1.4,1.4-2.1,3.2-2.1,5.2
		C108.4,20.4,111.6,23.4,115.9,23.4z M115.6,11.4c2.1-0.2,3.9,1.4,4.1,3.5h-8.4C111.6,12.8,113.5,11.3,115.6,11.4z"/>
	<path class="st0" d="M131.2,14.7L131.2,14.7c-2.4-0.6-3-1-3-2c0-1,0.8-1.4,2.1-1.4c1.1,0,2.1,0.5,2.7,1.4l0.2,0.2l2.1-1.6l-0.2-0.2
		c-1.1-1.5-2.9-2.4-4.7-2.3c-2.8,0-4.7,1.6-4.7,4c0,2.8,2.2,3.7,4.3,4.3h0.1c2.4,0.7,3.2,1,3.2,2.1c0,1.1-0.9,1.7-2.5,1.7
		c-1.5,0.1-2.9-0.8-3.6-2.1l-0.2-0.2l-2.2,1.3l0.1,0.3c1.2,2.1,3.5,3.4,6,3.3c3.2,0,5.1-1.6,5.1-4.3
		C135.9,16.4,133.7,15.4,131.2,14.7z"/>
	<path class="st0" d="M153,8.9L153,8.9c-4,0.1-7.2,3.4-7.2,7.4c0,4,3.3,7.2,7.3,7.2c4,0,7.2-3.3,7.2-7.2c0-1.9-0.8-3.8-2.2-5.2
		C156.8,9.6,154.9,8.9,153,8.9z M155.3,20.3c-1.4,0.9-3.2,0.9-4.7,0c-1.4-0.9-2.3-2.5-2.2-4.2c-0.1-1.7,0.7-3.3,2.2-4.2
		c1.4-0.9,3.2-0.9,4.7,0c1.4,0.9,2.3,2.5,2.2,4.2C157.5,17.8,156.7,19.4,155.3,20.3z"/>
	<rect x="139.2" y="9.7" class="st0" width="2.9" height="13.5"/>
	<path class="st0" d="M139.2,4.1v3.6h2.9C141.4,6.3,140.4,5.1,139.2,4.1z"/>
	<path class="st0" d="M81.5,31.6L81.5,31.6c-1.8,0-3.5,0.8-4.6,2.2v-1.9h-2.8v14H77v-7.7c-0.1-1.1,0.3-2.1,1-2.9
		c0.7-0.8,1.8-1.1,2.8-1.1c2.1,0,3.1,1.1,3.1,3.4V46h2.9v-8.5C86.8,33.9,84.8,31.6,81.5,31.6z"/>
	<path class="st0" d="M96.7,39.8c-0.2,0.4-0.3,0.8-0.5,1.3c-0.1-0.4-0.3-0.8-0.5-1.2l-3.6-7.9H89l6.8,14.3h0.8l6.7-14.3h-3
		L96.7,39.8z"/>
	<path class="st0" d="M111.6,31.6c-2.6,0.1-5,1.5-6.2,3.8c-1.3,2.3-1.2,5,0.2,7.3c1.3,2.2,3.8,3.6,6.4,3.5c2.2,0.1,4.4-0.8,5.8-2.4
		l0.2-0.2l-1.8-1.8l-0.2,0.2c-1,1.1-2.5,1.7-4,1.7c-2.3,0.2-4.3-1.4-4.6-3.7h11.3v-0.3c0.2-2.2-0.6-4.4-2.1-6.1
		C115.2,32.3,113.5,31.6,111.6,31.6z M107.3,37.7c0.3-2.1,2.2-3.6,4.3-3.5c2.1-0.1,3.9,1.4,4.1,3.5H107.3z"/>
	<path class="st0" d="M111.6,31.6C111.6,31.6,111.6,31.6,111.6,31.6C111.6,31.6,111.6,31.6,111.6,31.6L111.6,31.6z"/>
	<path class="st0" d="M128.1,37.5c-2.4-0.7-3-1-3-2s0.8-1.4,2.1-1.4c1.1,0,2.1,0.5,2.7,1.4l0.2,0.3l2.1-1.6l-0.2-0.2
		c-1.1-1.5-2.9-2.4-4.7-2.3c-2.8,0-4.7,1.6-4.7,4c0,2.8,2.2,3.7,4.3,4.3h0.1c2.4,0.7,3.2,1,3.2,2.2c0,1.1-1,1.7-2.6,1.7
		c-1.5,0.1-2.9-0.8-3.6-2.1l-0.2-0.3l-2.2,1.3l0.1,0.2c1.2,2.2,3.5,3.4,6,3.3c3.2,0,5.1-1.6,5.1-4.3
		C132.8,39.2,130.5,38.2,128.1,37.5z"/>
	<path class="st0" d="M153,31.6L153,31.6c-4,0.1-7.2,3.4-7.2,7.4c0,4,3.3,7.2,7.3,7.2c4,0,7.2-3.3,7.2-7.3c0-1.9-0.8-3.8-2.2-5.2
		C156.8,32.4,154.9,31.6,153,31.6z M155.3,43.1c-1.4,0.9-3.2,0.9-4.7,0c-1.4-0.9-2.3-2.5-2.2-4.2c-0.1-1.7,0.7-3.3,2.2-4.2
		c1.4-0.9,3.2-0.9,4.7,0c1.4,0.9,2.3,2.5,2.2,4.2C157.5,40.6,156.7,42.2,155.3,43.1z"/>
	<path class="st0" d="M170.3,31.7C170.3,31.7,170.3,31.7,170.3,31.7C170.3,31.7,170.3,31.7,170.3,31.7L170.3,31.7z"/>
	<path class="st0" d="M170.3,31.7c-1.4,0-2.8,0.7-3.6,1.9v-1.7h-2.9v14h2.9v-7.4c0-2.7,1.2-4.2,3.2-4.2c0.6,0,1.2,0.1,1.7,0.5
		l0.3,0.2l1.1-2.5l-0.2-0.1C172,31.9,171.2,31.6,170.3,31.7z"/>
	<path class="st0" d="M181,37.5L181,37.5c-2.3-0.7-2.9-1-2.9-2s0.8-1.4,2.1-1.4c1.1,0,2.1,0.5,2.7,1.4l0.2,0.3l2.1-1.6l-0.2-0.2
		c-1.1-1.5-2.9-2.4-4.7-2.3c-2.8,0-4.7,1.6-4.7,4c0,2.8,2.2,3.7,4.3,4.3h0.1c2.4,0.7,3.2,1,3.2,2.2c0,1.1-1,1.7-2.5,1.7
		c-1.5,0.1-3-0.7-3.7-2.1l-0.2-0.3l-2.3,1.3l0.1,0.2c1.2,2.2,3.5,3.4,6,3.3c3.2,0,5.1-1.6,5.1-4.3C185.7,39.2,183.4,38.2,181,37.5z"
		/>
	<path class="st0" d="M141.8,43c-0.4,0.5-1,0.8-1.7,0.7c-0.6,0-1.3-0.2-1.3-2v-7h3.6v-2.4h-3.6v-4.5h-2.7v13.8
		c0,3.9,2.4,4.5,3.8,4.5c1.2,0.1,2.5-0.4,3.3-1.3l0.2-0.2l-1.4-1.9L141.8,43z"/>
	<rect x="66.4" y="32.4" class="st0" width="2.9" height="13.5"/>
	<path class="st0" d="M66.4,26.9v3.6h2.9C68.6,29.1,67.6,27.8,66.4,26.9z"/>
	<path class="st0" d="M40.9,5.1v10h8C47.1,11.2,44.3,7.7,40.9,5.1z"/>
	<path class="st0" d="M50.5,20.2h-9.6v25.7c6.4-4.8,10.2-12.4,10.2-20.4C51.1,23.7,50.9,22,50.5,20.2L50.5,20.2z"/>
	<path class="st0" d="M5.4,9.8c-7.2,9.2-7.2,22.1,0,31.3c7.2,9.2,19.7,12.4,30.3,7.7v-12c-6.1,5.5-15.5,5.2-21.2-0.8
		c-5.7-5.9-5.7-15.3,0-21.2c5.7-5.9,15.1-6.3,21.2-0.8v-12C25-2.5,12.5,0.6,5.4,9.8z"/>
</g>
</svg>
