<?xml version="1.0" encoding="UTF-8"?>
<svg width="181px" height="51px" viewBox="0 0 181 51" version="1.1" xmlns="http://www.w3.org/2000/svg" xmlns:xlink="http://www.w3.org/1999/xlink">
    <!-- Generator: Sketch 53.2 (72643) - https://sketchapp.com -->
    <title>logo-ci-blue</title>
    <desc>Created with Sketch.</desc>
    <g id="Symbols" stroke="none" stroke-width="1" fill="none" fill-rule="evenodd">
        <g id="logo-ci-blue" fill="#1D3756">
            <g>
                <path d="M75,19.39 C74.1544674,20.4510856 72.8559068,21.0484235 71.5,21 C68.99,21 67.3,19.18 67.3,16.46 C67.3,13.74 68.99,11.91 71.5,11.91 C72.7955891,11.8422979 74.0400271,12.4232856 74.82,13.46 L75,13.7 L77,12 L76.81,11.77 C75.5165671,10.1583691 73.5347903,9.25654927 71.47,9.34 C67.5708697,9.34 64.41,12.5008697 64.41,16.4 C64.41,20.2991303 67.5708697,23.46 71.47,23.46 C73.5943913,23.5970144 75.6541247,22.6993729 77,21.05 L77.18,20.83 L75.18,19.17 L75,19.39 Z" id="Path"></path>
                <path d="M86,9.36 C84.1295402,9.35987784 82.3368309,10.1083473 81.0217522,11.4384555 C79.7066734,12.7685637 78.9786233,14.5696623 79,16.44 C79,20.52 82.08,23.44 86.33,23.44 C88.4709084,23.5480026 90.5488591,22.6977653 92,21.12 L92.18,20.91 L90.42,19.19 L90.22,19.41 C89.2267249,20.506834 87.7986309,21.1073658 86.32,21.05 C84.0997669,21.2361909 82.1204961,19.6562851 81.81,17.45 L92.81,17.45 L92.81,17.17 C92.9700988,15.0226724 92.2478529,12.9028807 90.81,11.3 C89.5439198,10.0160137 87.8026193,9.31370127 86,9.36 L86,9.36 Z M81.84,15.2 C82.1459199,13.1654741 83.9452926,11.694833 86,11.8 C88.0383843,11.6499433 89.8197067,13.1640673 90,15.2 L81.84,15.2 Z" id="Shape" fill-rule="nonzero"></path>
                <path d="M102.22,9.39 C100.816836,9.37840246 99.5047199,10.0834761 98.74,11.26 L98.74,9.64 L96,9.64 L96,23.23 L98.79,23.23 L98.79,16.09 C98.79,13.5 99.9,12.02 101.86,12.02 C102.434052,11.9944567 103.001365,12.1520436 103.48,12.47 L103.77,12.67 L104.86,10.21 L104.66,10.07 C103.940495,9.59599205 103.091026,9.35828052 102.23,9.39" id="Path"></path>
                <path d="M112.56,9.36 C110.68954,9.35987784 108.896831,10.1083473 107.581752,11.4384555 C106.266673,12.7685637 105.538623,14.5696623 105.56,16.44 C105.56,20.52 108.64,23.44 112.89,23.44 C115.040739,23.5408968 117.124022,22.6753073 118.57,21.08 L118.75,20.87 L117,19.19 L116.8,19.41 C115.806725,20.506834 114.378631,21.1073658 112.9,21.05 C110.679767,21.2361909 108.700496,19.6562851 108.39,17.45 L119.39,17.45 L119.39,17.17 C119.550099,15.0226724 118.827853,12.9028807 117.39,11.3 C116.116735,10.0082741 114.362944,9.3053083 112.55,9.36 L112.56,9.36 Z M108.41,15.2 C108.715228,13.1734424 110.502769,11.7054135 112.55,11.8 C114.588384,11.6499433 116.369707,13.1640673 116.55,15.2 L108.41,15.2 Z" id="Shape" fill-rule="nonzero"></path>
                <path d="M127.75,15.06 C125.46,14.4 124.88,14.06 124.88,13.11 C124.88,12.16 125.64,11.73 126.88,11.73 C127.920841,11.7031724 128.901164,12.2179364 129.47,13.09 L129.64,13.33 L131.64,11.82 L131.48,11.59 C130.432299,10.1210773 128.712585,9.2819171 126.91,9.36 C124.18,9.36 122.34,10.9 122.34,13.2 C122.34,15.91 124.48,16.76 126.48,17.34 L126.55,17.34 C128.86,18.01 129.66,18.34 129.66,19.42 C129.66,20.5 128.74,21.08 127.19,21.08 C125.716351,21.1345001 124.34423,20.3314977 123.67,19.02 L123.52,18.78 L121.34,20.03 L121.46,20.28 C122.630441,22.3664704 124.892269,23.5984283 127.28,23.45 C130.43,23.45 132.28,21.9 132.28,19.3 C132.28,16.7 130.1,15.66 127.76,15.03" id="Path"></path>
                <path d="M148.81,9.36 C144.9312,9.43145226 141.836727,12.6192168 141.880481,16.4984277 C141.924235,20.3776386 145.089822,23.4947953 148.969246,23.478742 C152.848671,23.4626886 155.988352,20.3194402 156,16.44 C156.005475,14.5501632 155.253044,12.7370248 153.911095,11.4063531 C152.569147,10.0756814 150.749723,9.3385774 148.86,9.36 M153.19,16.44 C153.300336,18.0681597 152.494296,19.6221441 151.099796,20.4697565 C149.705295,21.3173688 147.954705,21.3173688 146.560204,20.4697565 C145.165704,19.6221441 144.359664,18.0681597 144.47,16.44 C144.359664,14.8118403 145.165704,13.2578559 146.560204,12.4102435 C147.954705,11.5626312 149.705295,11.5626312 151.099796,12.4102435 C152.494296,13.2578559 153.300336,14.8118403 153.19,16.44" id="Shape" fill-rule="nonzero"></path>
                <path d="M79.41,31.47 C77.6815232,31.4226356 76.0374754,32.2166995 75,33.6 L75,31.75 L72.3,31.75 L72.3,45.34 L75.08,45.34 L75.08,37.88 C74.9858488,36.8515438 75.3494051,35.8338163 76.0738713,35.0977895 C76.7983374,34.3617627 77.8101822,33.9821412 78.84,34.06 C80.84,34.06 81.84,35.17 81.84,37.38 L81.84,45.38 L84.62,45.38 L84.62,37.13 C84.62,33.69 82.62,31.47 79.46,31.47" id="Path"></path>
                <path d="M94.22,39.42 C94.0379802,39.8141295 93.8875083,40.2220753 93.77,40.64 C93.6504053,40.2273305 93.5034122,39.8230995 93.33,39.43 L89.8,31.75 L86.73,31.75 L93.32,45.59 L94.1,45.59 L100.59,31.75 L97.69,31.75 L94.22,39.42 Z" id="Path"></path>
                <path d="M108.7,31.47 C106.177705,31.5235898 103.875598,32.9187373 102.660861,35.1299038 C101.446123,37.3410703 101.503303,40.0323271 102.810861,42.1899038 C104.118418,44.3474805 106.477705,45.6435898 109,45.59 C111.150241,45.6880632 113.232365,44.8229555 114.68,43.23 L114.87,43.02 L113.1,41.3 L112.9,41.52 C111.904873,42.6131369 110.477037,43.209899 109,43.15 C106.785261,43.3362261 104.81045,41.7607659 104.5,39.56 L115.5,39.56 L115.5,39.28 C115.662881,37.1292976 114.94045,35.0053519 113.5,33.4 C112.222989,32.115022 110.470813,31.4163238 108.66,31.47 L108.7,31.47 Z M104.52,37.31 C104.820619,35.2794435 106.609463,33.8060235 108.66,33.9 C110.700142,33.7556846 112.479663,35.272726 112.66,37.31 L104.52,37.31 Z" id="Shape" fill-rule="nonzero"></path>
                <path d="M124.7,37.16 C122.41,36.5 121.83,36.21 121.83,35.21 C121.83,34.21 122.58,33.84 123.83,33.84 C124.868893,33.8109909 125.848791,34.3217488 126.42,35.19 L126.6,35.44 L128.6,33.92 L128.44,33.69 C127.387621,32.2277396 125.669953,31.3933365 123.87,31.47 C121.14,31.47 119.31,33.01 119.31,35.31 C119.31,38.01 121.44,38.86 123.44,39.45 L123.52,39.45 C125.83,40.12 126.63,40.45 126.63,41.54 C126.63,42.63 125.7,43.19 124.15,43.19 C122.679202,43.2439047 121.308893,42.4458553 120.63,41.14 L120.48,40.89 L118.3,42.15 L118.43,42.39 C119.597725,44.4803308 121.860103,45.7164753 124.25,45.57 C127.4,45.57 129.25,44.01 129.25,41.41 C129.25,38.81 127,37.8 124.7,37.16" id="Path"></path>
                <path d="M148.81,31.47 C144.929897,31.5414636 141.834904,34.7312533 141.880496,38.611746 C141.926089,42.4922388 145.095172,45.6084309 148.975883,45.5887117 C152.856593,45.5689925 155.993845,42.4207557 156,38.54 C156.005513,36.6510603 155.252767,34.8389178 153.910515,33.5098259 C152.568264,32.1807341 150.748794,31.4458777 148.86,31.47 M153.19,38.54 C153.300336,40.1681597 152.494296,41.7221441 151.099796,42.5697565 C149.705295,43.4173688 147.954705,43.4173688 146.560204,42.5697565 C145.165704,41.7221441 144.359664,40.1681597 144.47,38.54 C144.359664,36.9118403 145.165704,35.3578559 146.560204,34.5102435 C147.954705,33.6626312 149.705295,33.6626312 151.099796,34.5102435 C152.494296,35.3578559 153.300336,36.9118403 153.19,38.54" id="Shape" fill-rule="nonzero"></path>
                <path d="M165.7,31.5 C164.294968,31.4808069 162.979416,32.187727 162.22,33.37 L162.22,31.75 L159.43,31.75 L159.43,45.34 L162.21,45.34 L162.21,38.2 C162.21,35.61 163.33,34.12 165.28,34.12 C165.856725,34.0984297 166.426027,34.2555989 166.91,34.57 L167.2,34.77 L168.28,32.31 L168.08,32.18 C167.367365,31.69917 166.51878,31.4607248 165.66,31.5" id="Path"></path>
                <path d="M176.13,37.16 C173.84,36.5 173.26,36.21 173.26,35.21 C173.26,34.21 174.02,33.84 175.26,33.84 C176.302407,33.8074799 177.286904,34.3186613 177.86,35.19 L178.03,35.44 L180.03,33.92 L179.87,33.69 C178.813235,32.2275628 177.092675,31.3935796 175.29,31.47 C172.56,31.47 170.73,33.01 170.73,35.31 C170.73,38.01 172.86,38.86 174.87,39.45 L174.94,39.45 C177.25,40.12 178.05,40.45 178.05,41.54 C178.05,42.63 177.12,43.19 175.58,43.19 C174.092409,43.2714743 172.693802,42.4784097 172,41.16 L171.85,40.91 L169.66,42.17 L169.79,42.41 C170.959491,44.4985476 173.220649,45.7340262 175.61,45.59 C178.76,45.59 180.61,44.03 180.61,41.43 C180.61,38.83 178.44,37.8 176.1,37.16" id="Path"></path>
                <path d="M138,42.49 C137.601862,42.9627151 137.007542,43.2248069 136.39,43.2 C135.76,43.2 135.17,42.97 135.17,41.28 L135.17,34.51 L138.7,34.51 L138.7,32.18 L135.17,32.18 L135.17,27.85 L132.5,27.85 L132.5,41.25 C132.5,45.03 134.79,45.59 136.15,45.59 C137.362269,45.6456255 138.539578,45.1754309 139.38,44.3 L139.54,44.14 L138.19,42.27 L138,42.49 Z" id="Path"></path>
                <rect id="Rectangle" x="135.45" y="10.11" width="2.78" height="13.12"></rect>
                <path d="M135.45,8.25 L138.23,8.25 C137.618543,6.86715808 136.661101,5.66518871 135.45,4.76 L135.45,8.25 Z" id="Path"></path>
                <rect id="Rectangle" x="64.81" y="32.22" width="2.78" height="13.12"></rect>
                <path d="M64.81,30.35 L67.59,30.35 C66.9695445,28.975398 66.0136042,27.7787533 64.81,26.87 L64.81,30.35 Z" id="Path"></path>
                <path d="M40,15.44 L47.76,15.44 C46.0393233,11.5889189 43.3692864,8.23760972 40,5.7 L40,15.44 Z" id="Path"></path>
                <path d="M49.34,20.39 L40,20.39 L40,45.3 C46.238416,40.6310489 49.9078887,33.2921034 49.9,25.5 C49.897109,23.7830993 49.7195277,22.0709482 49.37,20.39" id="Path"></path>
                <path d="M35,36.57 C29.0455637,41.9077043 19.9348123,41.5761585 14.3840966,35.8197747 C8.83338086,30.063391 8.83338086,20.946609 14.3840966,15.1902253 C19.9348123,9.4338415 29.0455637,9.10229572 35,14.44 L35,2.81 C24.6227894,-1.72262111 12.4929761,1.36246129 5.5423177,10.3022322 C-1.40834065,19.242003 -1.40834065,31.757997 5.5423177,40.6977678 C12.4929761,49.6375387 24.6227894,52.7226211 35,48.19 L35,36.57 Z" id="Path"></path>
            </g>
        </g>
    </g>
</svg>